<svg xmlns="http://www.w3.org/2000/svg" version="1.1" xmlns:xlink="http://www.w3.org/1999/xlink" xmlns:svgjs="http://svgjs.dev/svgjs" width="1000" height="588" viewBox="0 0 1000 588"><g transform="matrix(1,0,0,1,-0.6065886401806324,-0.42214412172614857)"><svg viewBox="0 0 396 233" data-background-color="#c9efc7" preserveAspectRatio="xMidYMid meet" height="588" width="1000" xmlns="http://www.w3.org/2000/svg" xmlns:xlink="http://www.w3.org/1999/xlink"><g id="tight-bounds" transform="matrix(1,0,0,1,0.24020910151153885,0.16727819789488763)"><svg viewBox="0 0 395.52 232.66544360421022" height="232.66544360421022" width="395.52"><g><svg viewBox="0 0 395.52 232.66544360421022" height="232.66544360421022" width="395.52"><g transform="matrix(1,0,0,1,0,168.58218408055248)"><svg viewBox="0 0 395.52 64.08325952365774" height="64.08325952365774" width="395.52"><g><svg viewBox="0 0 395.52 64.08325952365774" height="64.08325952365774" width="395.52"><g><svg viewBox="0 0 395.52 44.464386251003006" height="44.464386251003006" width="395.52"><g transform="matrix(1,0,0,1,0,0)"><svg width="395.52" viewBox="-0.48058924078941345 -40.80031204223633 481.80218505859375 54.16423797607422" height="44.464386251003006" data-palette-color="#454545"><path d="M42.226-2.842v0c0.435 4.358-1.1 7.677-4.604 9.956-3.505 2.273-7.443 3.627-11.815 4.064v0l-21.801 2.175c-0.564 0.056-1.022-0.106-1.375-0.486-0.352-0.374-0.555-0.826-0.608-1.356v0c-0.059-0.59 0.025-1.121 0.253-1.593 0.228-0.465 0.648-0.728 1.258-0.789v0l6.348-0.633-3.266-32.738-5.125 0.511c-0.557 0.056-1.009-0.107-1.355-0.487-0.346-0.381-0.545-0.833-0.598-1.358v0c-0.06-0.597 0.021-1.128 0.243-1.592 0.215-0.464 0.628-0.726 1.238-0.787v0l19.643-1.96c3.94-0.393 7.434 0.002 10.479 1.186 3.053 1.183 4.779 3.784 5.181 7.804v0c0.2 2.003-0.209 3.709-1.228 5.117-1.019 1.401-2.294 2.39-3.825 2.965v0c2.697 0.106 5.11 0.921 7.239 2.443 2.129 1.53 3.369 4.049 3.718 7.558zM36.164-2.77v0c-0.361-3.622-1.68-5.758-3.956-6.408-2.275-0.644-4.789-0.829-7.542-0.554v0l-10.817 1.079 1.655 16.588 9.951-0.993c3.363-0.336 6.071-1.232 8.123-2.69 2.045-1.464 2.907-3.804 2.586-7.022zM31.515-20.154v0c-0.244-2.448-1.276-4.06-3.096-4.836-1.812-0.771-4.105-1.017-6.877-0.741v0l-9.304 0.928 1.302 13.045 10.816-1.079c1.937-0.193 3.674-0.882 5.21-2.067 1.529-1.191 2.179-2.941 1.949-5.25zM42.772 7.448v0c-0.047-0.591 0.048-1.121 0.285-1.587 0.238-0.46 0.662-0.715 1.274-0.763v0l3.349-0.266 13.08-37.273c0.195-0.577 0.517-1.114 0.965-1.612 0.442-0.497 1.049-0.775 1.82-0.836v0c0.804-0.064 1.438 0.123 1.9 0.561 0.463 0.445 0.838 0.953 1.124 1.526v0l17.327 34.757 4.286-0.341c0.611-0.049 1.067 0.136 1.369 0.554 0.295 0.425 0.465 0.933 0.512 1.524v0c0.042 0.532-0.073 1.012-0.347 1.442-0.266 0.436-0.682 0.676-1.247 0.721v0l-15.531 1.234c-0.565 0.045-1.02-0.126-1.365-0.514-0.345-0.381-0.538-0.837-0.58-1.368v0c-0.047-0.591 0.048-1.121 0.285-1.588 0.238-0.46 0.662-0.715 1.274-0.763v0l5.273-0.419-4.307-9.138-17.465 1.388-3.03 9.72 4.476-0.355c0.611-0.049 1.071 0.136 1.378 0.552 0.308 0.424 0.485 0.931 0.532 1.523v0c0.042 0.532-0.077 1.013-0.356 1.443-0.28 0.437-0.702 0.678-1.267 0.722v0l-13.069 1.038c-0.565 0.045-1.02-0.126-1.365-0.513-0.345-0.381-0.538-0.837-0.58-1.369zM63.302-28.47l-6.048 19.33 14.594-1.16zM102.233-17.792l4.432-0.263c3.667-0.217 6.879-0.724 9.637-1.522 2.764-0.798 4.043-2.951 3.835-6.458v0c-0.211-3.567-1.906-5.567-5.083-6-3.184-0.433-6.56-0.543-10.128-0.332v0l-3.543 0.21zM125.983-26.621v0c0.194 3.281-0.736 5.724-2.792 7.328-2.049 1.604-4.614 2.771-7.697 3.5v0c1.564 0.589 2.951 1.395 4.16 2.419 1.203 1.024 2.219 2.393 3.048 4.107v0l4.132 8.531 3.543-0.21c0.965-0.057 1.651 0.073 2.057 0.389 0.406 0.317 0.633 0.884 0.682 1.703v0c0.053 0.898-0.153 1.478-0.618 1.739-0.472 0.262-1.084 0.415-1.837 0.46v0l-10.472 0.6c-0.559 0.033-1.007-0.147-1.345-0.542-0.343-0.387-0.531-0.847-0.562-1.379v0c-0.035-0.592 0.074-1.123 0.326-1.592 0.246-0.469 0.672-0.721 1.278-0.757v0l1.188-0.07-3.109-6.658c-0.826-1.774-2.103-3.382-3.832-4.822-1.721-1.441-3.78-2.09-6.176-1.949v0l-5.47 0.324 0.838 14.155 6.369-0.377c0.606-0.036 1.058 0.164 1.358 0.601 0.306 0.436 0.477 0.95 0.512 1.543v0c0.032 0.532-0.1 1.011-0.396 1.435-0.288 0.431-0.712 0.663-1.271 0.697v0l-17.29 1.023c-0.566 0.033-1.017-0.147-1.354-0.541-0.337-0.387-0.521-0.847-0.553-1.379v0c-0.035-0.592 0.07-1.123 0.317-1.592 0.246-0.469 0.675-0.721 1.287-0.757v0l5.381-0.319-1.943-32.812-4.392 0.26c-0.612 0.036-1.068-0.161-1.367-0.591-0.299-0.423-0.466-0.934-0.502-1.533v0c-0.031-0.526 0.098-1.004 0.386-1.435 0.289-0.424 0.716-0.653 1.282-0.687v0l14.275-0.845c5.224-0.309 9.881-0.001 13.969 0.926 4.089 0.927 6.285 3.962 6.59 9.107zM132.265-25.385v0c-0.526 0.022-0.94-0.138-1.241-0.479-0.294-0.341-0.454-0.802-0.478-1.381v0l-0.013-8.998c-0.006-0.627 0.088-1.101 0.281-1.422 0.2-0.322 0.573-0.494 1.12-0.517v0l34.8-1.445c0.513-0.021 0.889 0.123 1.129 0.433 0.24 0.31 0.379 0.772 0.418 1.384v0l0.742 8.967c0.024 0.58-0.1 1.052-0.371 1.417-0.265 0.365-0.664 0.558-1.197 0.58v0c-0.56 0.023-1.017-0.078-1.374-0.303-0.357-0.232-0.581-0.643-0.672-1.233v0l-1.037-6.893-12.309 0.511 1.365 32.871 6.404-0.266c0.606-0.025 1.052 0.177 1.336 0.606 0.285 0.435 0.44 0.949 0.465 1.542v0c0.022 0.533-0.112 1.009-0.401 1.427-0.289 0.426-0.714 0.65-1.274 0.674v0l-18.294 0.759c-0.566 0.024-1.014-0.165-1.344-0.564-0.33-0.393-0.506-0.856-0.528-1.39v0c-0.025-0.593 0.09-1.118 0.344-1.575 0.255-0.451 0.689-0.689 1.302-0.715v0l6.374-0.265-1.364-32.871-11.83 0.491-0.442 6.954c-0.035 0.615-0.22 1.047-0.557 1.294-0.337 0.248-0.788 0.383-1.354 0.407zM198.031-20.689l0.507 6.03c0.013 0.567-0.123 1.033-0.409 1.399-0.278 0.366-0.694 0.556-1.247 0.569v0c-0.493 0.011-0.91-0.139-1.251-0.452-0.334-0.313-0.572-0.694-0.716-1.144v0l-1.331-4.461-8.068 0.182 0.353 15.626 21.324-0.482 2.62-8.031c0.215-0.505 0.522-0.945 0.92-1.321 0.392-0.369 0.901-0.56 1.528-0.575v0c0.533-0.012 0.963 0.138 1.29 0.451 0.334 0.319 0.507 0.752 0.52 1.299v0c0.004 0.16-0.006 0.32-0.03 0.481-0.023 0.161-0.056 0.315-0.099 0.462v0l-1.306 9.482c-0.147 0.583-0.363 1.045-0.649 1.385-0.279 0.346-0.708 0.526-1.288 0.539v0l-37.191 0.84c-0.567 0.013-1.011-0.184-1.334-0.59-0.322-0.399-0.49-0.866-0.501-1.399v0c-0.013-0.593 0.111-1.116 0.374-1.569 0.263-0.446 0.702-0.676 1.315-0.69v0l6.878-0.155-0.743-32.892-4.418 0.1c-0.613 0.014-1.055-0.2-1.325-0.64-0.277-0.434-0.422-0.951-0.435-1.551v0c-0.012-0.527 0.131-1 0.428-1.42 0.297-0.413 0.726-0.627 1.286-0.639v0l33.741-0.762c0.58-0.013 1.01 0.147 1.291 0.481 0.281 0.34 0.525 0.792 0.731 1.354v0l2.492 7.605c0.051 0.172 0.091 0.338 0.122 0.498 0.024 0.166 0.037 0.313 0.04 0.439v0c0.012 0.533-0.142 0.967-0.461 1.301-0.326 0.341-0.745 0.517-1.259 0.528v0c-0.593 0.013-1.107-0.158-1.542-0.515-0.435-0.35-0.764-0.773-0.989-1.268v0l-2.748-6.119-21.325 0.481 0.311 13.787 8.068-0.183 1.129-4.516c0.123-0.456 0.344-0.848 0.663-1.176 0.326-0.334 0.735-0.507 1.229-0.517v0c0.553-0.012 0.977 0.161 1.272 0.521 0.301 0.353 0.458 0.813 0.471 1.38v0zM216.805-38.725v0c-0.001-0.527 0.155-0.997 0.469-1.411 0.313-0.407 0.753-0.611 1.319-0.611v0l11.18-0.014c0.387 0 0.687 0.063 0.9 0.189 0.207 0.126 0.384 0.343 0.531 0.649v0l21.267 30.245-0.033-26.86-4.35 0.005c-0.613 0.001-1.057-0.222-1.331-0.668-0.274-0.44-0.411-0.96-0.412-1.56v0c-0.001-0.527 0.155-0.997 0.469-1.411 0.32-0.407 0.759-0.611 1.319-0.611v0l14.06-0.017c0.567-0.001 1 0.202 1.301 0.608 0.307 0.413 0.461 0.883 0.461 1.41v0c0.001 0.6-0.132 1.12-0.398 1.56-0.259 0.447-0.696 0.671-1.309 0.672v0l-4.81 0.006 0.044 35.869c0.001 0.613-0.212 1.13-0.638 1.551-0.426 0.414-0.936 0.621-1.53 0.622v0c-0.52 0.001-0.96-0.122-1.32-0.368-0.36-0.253-0.664-0.556-0.911-0.909v0l-24.632-34.75 0.037 30.92 4.25-0.005c0.613-0.001 1.057 0.219 1.331 0.658 0.274 0.446 0.411 0.966 0.412 1.559v0c0.001 0.533-0.155 1.004-0.468 1.411-0.313 0.414-0.749 0.621-1.31 0.622v0l-14.06 0.017c-0.567 0.001-1.007-0.205-1.32-0.619-0.314-0.406-0.471-0.876-0.472-1.409v0c-0.001-0.593 0.135-1.113 0.408-1.561 0.273-0.44 0.716-0.661 1.329-0.661v0l4.81-0.006-0.04-32.9-4.81 0.006c-0.613 0.001-1.057-0.222-1.331-0.669-0.274-0.44-0.411-0.96-0.412-1.559zM303.765-19.531v0c0.103-5.186-1.367-9.219-4.409-12.1-3.043-2.875-7.175-4.364-12.394-4.468v0l-6.899-0.137-0.655 32.893c0.559 0.044 1.112 0.079 1.658 0.103 0.546 0.031 1.096 0.052 1.649 0.063v0c6.099 0.122 11.102-1.012 15.011-3.401 3.902-2.389 5.915-6.707 6.039-12.953zM309.614-19.414v0c-0.135 6.792-2.478 11.933-7.028 15.423-4.544 3.484-10.221 5.157-17.034 5.022v0l-18.306-0.365c-0.567-0.011-1.002-0.227-1.308-0.646-0.305-0.413-0.452-0.886-0.441-1.419v0c0.012-0.593 0.159-1.11 0.441-1.552 0.282-0.434 0.73-0.646 1.342-0.633v0l6.469 0.129 0.656-32.894-4.899-0.098c-0.613-0.012-1.049-0.244-1.307-0.696-0.258-0.445-0.381-0.968-0.369-1.567v0c0.01-0.527 0.18-0.993 0.508-1.401 0.321-0.4 0.762-0.595 1.322-0.583v0l16.717 0.333c6.952 0.139 12.597 1.945 16.935 5.418 4.338 3.48 6.439 8.657 6.302 15.529zM339.308-19.023l0.126 6.05c-0.023 0.566-0.188 1.023-0.496 1.371-0.301 0.348-0.728 0.511-1.281 0.488v0c-0.493-0.02-0.899-0.197-1.22-0.529-0.313-0.333-0.528-0.729-0.642-1.187v0l-1.047-4.536-8.064-0.327-0.632 15.617 21.312 0.864 3.12-7.851c0.247-0.49 0.581-0.911 1.002-1.26 0.414-0.344 0.934-0.503 1.561-0.477v0c0.533 0.022 0.953 0.199 1.259 0.531 0.313 0.34 0.459 0.783 0.437 1.329v0c-0.006 0.16-0.026 0.319-0.059 0.478-0.033 0.159-0.076 0.311-0.129 0.455v0l-1.901 9.381c-0.183 0.573-0.428 1.02-0.735 1.341-0.3 0.328-0.74 0.48-1.32 0.457v0l-37.169-1.506c-0.566-0.023-0.997-0.247-1.294-0.673-0.297-0.419-0.434-0.895-0.413-1.428v0c0.024-0.593 0.182-1.107 0.473-1.542 0.291-0.429 0.743-0.63 1.356-0.605v0l6.874 0.278 1.332-32.873-4.416-0.179c-0.613-0.025-1.04-0.266-1.282-0.722-0.249-0.45-0.361-0.975-0.337-1.575v0c0.021-0.526 0.194-0.99 0.517-1.39 0.323-0.394 0.764-0.58 1.324-0.557v0l33.722 1.366c0.58 0.023 0.999 0.211 1.258 0.561 0.259 0.357 0.474 0.823 0.644 1.398v0l2.008 7.747c0.04 0.175 0.07 0.343 0.09 0.504 0.013 0.167 0.017 0.314 0.012 0.441v0c-0.022 0.533-0.202 0.956-0.542 1.269-0.347 0.32-0.776 0.469-1.289 0.448v0c-0.593-0.024-1.095-0.228-1.506-0.611-0.412-0.377-0.714-0.82-0.907-1.328v0l-2.358-6.28-21.313-0.864-0.558 13.779 8.064 0.326 1.41-4.436c0.152-0.448 0.397-0.825 0.737-1.131 0.346-0.313 0.766-0.459 1.258-0.44v0c0.553 0.022 0.965 0.223 1.237 0.601 0.279 0.372 0.406 0.84 0.384 1.407v0zM370.902-18.476l4.432 0.27c3.667 0.223 6.916 0.104 9.749-0.358 2.84-0.462 4.367-2.446 4.581-5.953v0c0.217-3.567-1.226-5.755-4.329-6.565-3.11-0.81-6.448-1.324-10.015-1.542v0l-3.544-0.215zM395.537-24.4v0c-0.2 3.281-1.416 5.594-3.648 6.941-2.226 1.347-4.913 2.199-8.06 2.555v0c1.483 0.772 2.763 1.738 3.84 2.899 1.071 1.161 1.916 2.641 2.535 4.442v0l3.081 8.964 3.544 0.216c0.965 0.059 1.63 0.27 1.995 0.632 0.365 0.363 0.523 0.954 0.473 1.772v0c-0.055 0.898-0.329 1.449-0.822 1.653-0.5 0.203-1.126 0.282-1.878 0.237v0l-10.469-0.658c-0.559-0.034-0.982-0.267-1.27-0.698-0.295-0.425-0.426-0.904-0.394-1.437v0c0.036-0.592 0.208-1.106 0.515-1.542 0.3-0.436 0.753-0.635 1.359-0.598v0l1.188 0.072-2.29-6.982c-0.608-1.86-1.684-3.609-3.227-5.246-1.537-1.636-3.503-2.528-5.899-2.673v0l-5.47-0.333-0.861 14.154 6.368 0.387c0.606 0.037 1.031 0.29 1.276 0.759 0.252 0.47 0.36 1 0.324 1.593v0c-0.032 0.532-0.221 0.992-0.565 1.378-0.338 0.394-0.786 0.573-1.345 0.54v0l-17.288-1.053c-0.566-0.034-0.992-0.267-1.28-0.699-0.288-0.425-0.416-0.904-0.383-1.436v0c0.036-0.592 0.204-1.106 0.504-1.542 0.3-0.436 0.757-0.635 1.369-0.598v0l5.38 0.327 1.998-32.809-4.392-0.267c-0.612-0.037-1.041-0.287-1.287-0.75-0.246-0.456-0.351-0.983-0.314-1.582v0c0.032-0.526 0.217-0.985 0.554-1.379 0.337-0.387 0.789-0.563 1.355-0.528v0l14.274 0.869c5.224 0.318 9.81 1.182 13.758 2.591 3.948 1.409 5.766 4.686 5.452 9.829zM405.75-10.765v0c0.05-0.658 0.333-1.215 0.849-1.67 0.523-0.455 1.12-0.657 1.792-0.606v0l17.868 1.365c0.678 0.052 1.238 0.342 1.678 0.87 0.448 0.529 0.646 1.122 0.597 1.78v0c-0.053 0.691-0.333 1.258-0.842 1.701-0.516 0.449-1.119 0.647-1.811 0.594v0l-17.868-1.364c-0.691-0.053-1.254-0.34-1.689-0.861-0.435-0.515-0.627-1.118-0.574-1.809zM481.31-26.188v0c-0.057 0.597-0.243 1.102-0.558 1.513-0.315 0.418-0.777 0.598-1.388 0.54v0l-3.991-0.384-14.775 14.181 13.219 18.721 2.906 0.28c0.611 0.059 1.031 0.32 1.261 0.784 0.229 0.471 0.316 1.001 0.259 1.592v0c-0.051 0.531-0.252 0.984-0.603 1.358-0.351 0.381-0.809 0.545-1.373 0.491v0l-16.255-1.563c-0.557-0.054-0.972-0.301-1.245-0.742-0.273-0.435-0.384-0.918-0.333-1.449v0c0.057-0.591 0.243-1.095 0.558-1.513 0.314-0.412 0.773-0.589 1.377-0.531v0l6.689 0.643-10.234-14.455-12.75 12.246 5.962 0.573c0.611 0.059 1.024 0.319 1.241 0.782 0.223 0.47 0.306 1.001 0.249 1.591v0c-0.051 0.531-0.249 0.984-0.593 1.36-0.345 0.382-0.796 0.546-1.353 0.493v0l-15.777-1.517c-0.557-0.054-0.969-0.301-1.235-0.742-0.266-0.434-0.374-0.917-0.323-1.447v0c0.057-0.591 0.239-1.095 0.548-1.515 0.308-0.412 0.763-0.59 1.367-0.532v0l4.399 0.423 15.805-15.177-12.318-17.539-3.245-0.312c-0.611-0.059-1.03-0.323-1.259-0.794-0.23-0.464-0.316-0.995-0.259-1.592v0c0.05-0.524 0.251-0.977 0.603-1.359 0.351-0.375 0.808-0.535 1.372-0.481v0l14.284 1.374c0.557 0.054 0.969 0.297 1.236 0.731 0.266 0.441 0.373 0.923 0.323 1.448v0c-0.057 0.597-0.24 1.102-0.548 1.514-0.302 0.42-0.758 0.6-1.368 0.542v0l-4.38-0.421 9.353 13.276 11.71-11.251-4.37-0.42c-0.611-0.059-1.03-0.323-1.26-0.795-0.23-0.464-0.316-0.995-0.258-1.592v0c0.05-0.524 0.251-0.977 0.602-1.358 0.351-0.375 0.805-0.535 1.363-0.482v0l13.786 1.325c0.557 0.054 0.973 0.298 1.246 0.733 0.272 0.441 0.383 0.924 0.333 1.449z" opacity="1" transform="matrix(1,0,0,1,0,0)" fill="#454545" class="undefined-text-0" data-fill-palette-color="primary" id="text-0"></path></svg></g></svg></g><g transform="matrix(1,0,0,1,118.31980799999998,48.071935509332235)"><svg viewBox="0 0 158.88038400000002 16.011324014325506" height="16.011324014325506" width="158.88038400000002"><g transform="matrix(1,0,0,1,0,0)"><svg width="158.88038400000002" viewBox="3.450000047683716 -39.75 502.53997802734375 50.650001525878906" height="16.011324014325506" data-palette-color="#454545"><path d="M3.45-34.55L21.9-34.55 21.2-29.75 9.95-29.75 9.95-19.95 19.8-19.95 19.8-15.2 9.95-15.2 9.95-4.85 22-4.85 22 0 3.45 0 3.45-34.55ZM40.25-27.2Q43.4-27.2 45.2-25.1 47-23 47-19.4L47-19.4 47 0 40.75 0 40.75-18.55Q40.75-20.65 40.07-21.53 39.4-22.4 38.1-22.4L38.1-22.4Q36.75-22.4 35.6-21.4 34.45-20.4 33.35-18.45L33.35-18.45 33.35 0 27.1 0 27.1-26.45 32.55-26.45 33-23Q34.45-25.05 36.22-26.13 38-27.2 40.25-27.2L40.25-27.2ZM59.55-26.45L59.55-1.75Q59.55 1.85 58.47 4.2 57.4 6.55 55.5 8.03 53.59 9.5 50.55 10.85L50.55 10.85 48.5 6.3Q50.25 5.4 51.25 4.53 52.25 3.65 52.77 2.23 53.3 0.8 53.3-1.5L53.3-1.5 53.3-26.45 59.55-26.45ZM56.45-39.75Q58.15-39.75 59.22-38.68 60.3-37.6 60.3-35.95L60.3-35.95Q60.3-34.3 59.22-33.23 58.15-32.15 56.45-32.15L56.45-32.15Q54.75-32.15 53.67-33.23 52.59-34.3 52.59-35.95L52.59-35.95Q52.59-37.6 53.67-38.68 54.75-39.75 56.45-39.75L56.45-39.75ZM76.19-27.2Q81.54-27.2 84.54-23.6 87.54-20 87.54-13.25L87.54-13.25Q87.54-6.75 84.52-3 81.49 0.75 76.19 0.75L76.19 0.75Q70.84 0.75 67.82-2.93 64.79-6.6 64.79-13.25L64.79-13.25Q64.79-19.8 67.82-23.5 70.84-27.2 76.19-27.2L76.19-27.2ZM76.19-22.45Q73.74-22.45 72.54-20.28 71.34-18.1 71.34-13.25L71.34-13.25Q71.34-8.35 72.54-6.18 73.74-4 76.19-4L76.19-4Q78.64-4 79.84-6.2 81.04-8.4 81.04-13.25L81.04-13.25Q81.04-18.15 79.84-20.3 78.64-22.45 76.19-22.45L76.19-22.45ZM112.64-26.45L104.94 0.1Q103.54 4.95 100.47 7.7 97.39 10.45 92.19 10.9L92.19 10.9 91.54 6.35Q94.94 5.8 96.59 4.4 98.24 3 99.29 0L99.29 0 97.04 0 89.59-26.45 96.04-26.45 101.09-4.15 106.34-26.45 112.64-26.45ZM150.94-26.45L156.84-26.45 151.79 0 144.04 0 140.64-20.8 137.19 0 129.59 0 124.39-26.45 130.54-26.45 133.69-4.65 137.59-26.45 143.99-26.45 147.64-4.65 150.94-26.45ZM160.73-26.45L166.98-26.45 166.98 0 160.73 0 160.73-26.45ZM163.88-39.75Q165.58-39.75 166.66-38.68 167.73-37.6 167.73-35.95L167.73-35.95Q167.73-34.3 166.66-33.23 165.58-32.15 163.88-32.15L163.88-32.15Q162.18-32.15 161.11-33.23 160.03-34.3 160.03-35.95L160.03-35.95Q160.03-37.6 161.11-38.68 162.18-39.75 163.88-39.75L163.88-39.75ZM185.48-5.15L187.68-1.25Q186.38-0.25 184.81 0.25 183.23 0.75 181.58 0.75L181.58 0.75Q177.93 0.75 176-1.35 174.08-3.45 174.08-7.2L174.08-7.2 174.08-21.95 170.53-21.95 170.53-26.45 174.08-26.45 174.08-32.3 180.33-33.05 180.33-26.45 185.88-26.45 185.23-21.95 180.33-21.95 180.33-7.25Q180.33-5.75 180.91-5.03 181.48-4.3 182.73-4.3L182.73-4.3Q184.08-4.3 185.48-5.15L185.48-5.15ZM203.83-27.2Q206.93-27.2 208.75-25.1 210.58-23 210.58-19.4L210.58-19.4 210.58 0 204.33 0 204.33-18.55Q204.33-20.65 203.65-21.53 202.98-22.4 201.68-22.4L201.68-22.4Q199.18-22.4 196.93-18.45L196.93-18.45 196.93 0 190.68 0 190.68-37 196.93-37.65 196.93-23.3Q198.33-25.25 199.98-26.23 201.63-27.2 203.83-27.2L203.83-27.2ZM247.82-26.45L240.12 0.1Q238.72 4.95 235.65 7.7 232.57 10.45 227.37 10.9L227.37 10.9 226.72 6.35Q230.12 5.8 231.77 4.4 233.42 3 234.47 0L234.47 0 232.22 0 224.77-26.45 231.22-26.45 236.27-4.15 241.52-26.45 247.82-26.45ZM261.22-27.2Q266.57-27.2 269.57-23.6 272.57-20 272.57-13.25L272.57-13.25Q272.57-6.75 269.55-3 266.52 0.75 261.22 0.75L261.22 0.75Q255.87 0.75 252.85-2.93 249.82-6.6 249.82-13.25L249.82-13.25Q249.82-19.8 252.85-23.5 255.87-27.2 261.22-27.2L261.22-27.2ZM261.22-22.45Q258.77-22.45 257.57-20.28 256.37-18.1 256.37-13.25L256.37-13.25Q256.37-8.35 257.57-6.18 258.77-4 261.22-4L261.22-4Q263.67-4 264.87-6.2 266.07-8.4 266.07-13.25L266.07-13.25Q266.07-18.15 264.87-20.3 263.67-22.45 261.22-22.45L261.22-22.45ZM297.27-26.45L297.27 0 291.87 0 291.52-3.5Q290.17-1.35 288.44-0.3 286.72 0.75 284.37 0.75L284.37 0.75Q281.17 0.75 279.39-1.35 277.62-3.45 277.62-7L277.62-7 277.62-26.45 283.87-26.45 283.87-7.55Q283.87-5.7 284.49-4.85 285.12-4 286.47-4L286.47-4Q289.07-4 291.02-7.6L291.02-7.6 291.02-26.45 297.27-26.45ZM316.12-27.15Q317.17-27.15 318.47-26.8L318.47-26.8 317.42-20.75Q316.37-21.05 315.32-21.05L315.32-21.05Q313.22-21.05 311.99-19.4 310.77-17.75 310.12-14.4L310.12-14.4 310.12 0 303.87 0 303.87-26.45 309.32-26.45 309.82-21.55Q310.77-24.3 312.37-25.73 313.97-27.15 316.12-27.15L316.12-27.15ZM339.06-26.45L339.06-1.75Q339.06 1.85 337.99 4.2 336.91 6.55 335.01 8.03 333.11 9.5 330.06 10.85L330.06 10.85 328.01 6.3Q329.76 5.4 330.76 4.53 331.76 3.65 332.29 2.23 332.81 0.8 332.81-1.5L332.81-1.5 332.81-26.45 339.06-26.45ZM335.96-39.75Q337.66-39.75 338.74-38.68 339.81-37.6 339.81-35.95L339.81-35.95Q339.81-34.3 338.74-33.23 337.66-32.15 335.96-32.15L335.96-32.15Q334.26-32.15 333.19-33.23 332.11-34.3 332.11-35.95L332.11-35.95Q332.11-37.6 333.19-38.68 334.26-39.75 335.96-39.75L335.96-39.75ZM355.71-27.2Q361.06-27.2 364.06-23.6 367.06-20 367.06-13.25L367.06-13.25Q367.06-6.75 364.03-3 361.01 0.75 355.71 0.75L355.71 0.75Q350.36 0.75 347.33-2.93 344.31-6.6 344.31-13.25L344.31-13.25Q344.31-19.8 347.33-23.5 350.36-27.2 355.71-27.2L355.71-27.2ZM355.71-22.45Q353.26-22.45 352.06-20.28 350.86-18.1 350.86-13.25L350.86-13.25Q350.86-8.35 352.06-6.18 353.26-4 355.71-4L355.71-4Q358.16-4 359.36-6.2 360.56-8.4 360.56-13.25L360.56-13.25Q360.56-18.15 359.36-20.3 358.16-22.45 355.71-22.45L355.71-22.45ZM385.71-26.45L391.96-26.45 384.31 0 376.91 0 369.11-26.45 375.66-26.45 380.66-5 385.71-26.45ZM395.35-26.45L401.6-26.45 401.6 0 395.35 0 395.35-26.45ZM398.5-39.75Q400.2-39.75 401.28-38.68 402.35-37.6 402.35-35.95L402.35-35.95Q402.35-34.3 401.28-33.23 400.2-32.15 398.5-32.15L398.5-32.15Q396.8-32.15 395.73-33.23 394.65-34.3 394.65-35.95L394.65-35.95Q394.65-37.6 395.73-38.68 396.8-39.75 398.5-39.75L398.5-39.75ZM426.3-6.65Q426.3-5.25 426.7-4.58 427.1-3.9 428-3.5L428-3.5 426.7 0.65Q424.55 0.4 423.23-0.45 421.9-1.3 421.25-3.1L421.25-3.1Q418.8 0.75 414.15 0.75L414.15 0.75Q410.6 0.75 408.5-1.5 406.4-3.75 406.4-7.4L406.4-7.4Q406.4-11.7 409.25-13.98 412.1-16.25 417.5-16.25L417.5-16.25 420.15-16.25 420.15-17.9Q420.15-20.4 419.15-21.45 418.15-22.5 415.9-22.5L415.9-22.5Q413.3-22.5 409.5-21.15L409.5-21.15 408.05-25.3Q412.6-27.2 416.9-27.2L416.9-27.2Q426.3-27.2 426.3-18.25L426.3-18.25 426.3-6.65ZM415.85-3.8Q418.6-3.8 420.15-7.05L420.15-7.05 420.15-12.55 418.15-12.55Q412.65-12.55 412.65-7.85L412.65-7.85Q412.65-5.85 413.5-4.83 414.35-3.8 415.85-3.8L415.85-3.8ZM438.85 0.75Q435.95 0.75 434.32-0.95 432.7-2.65 432.7-5.7L432.7-5.7 432.7-37.05 438.95-37.7 438.95-5.9Q438.95-4.3 440.3-4.3L440.3-4.3Q440.95-4.3 441.55-4.5L441.55-4.5 442.8-0.2Q441.15 0.75 438.85 0.75L438.85 0.75ZM446.45-26.45L452.7-26.45 452.7 0 446.45 0 446.45-26.45ZM449.6-39.75Q451.3-39.75 452.37-38.68 453.45-37.6 453.45-35.95L453.45-35.95Q453.45-34.3 452.37-33.23 451.3-32.15 449.6-32.15L449.6-32.15Q447.9-32.15 446.82-33.23 445.75-34.3 445.75-35.95L445.75-35.95Q445.75-37.6 446.82-38.68 447.9-39.75 449.6-39.75L449.6-39.75ZM471.19-5.15L473.39-1.25Q472.09-0.25 470.52 0.25 468.94 0.75 467.29 0.75L467.29 0.75Q463.64 0.75 461.72-1.35 459.79-3.45 459.79-7.2L459.79-7.2 459.79-21.95 456.24-21.95 456.24-26.45 459.79-26.45 459.79-32.3 466.04-33.05 466.04-26.45 471.59-26.45 470.94-21.95 466.04-21.95 466.04-7.25Q466.04-5.75 466.62-5.03 467.19-4.3 468.44-4.3L468.44-4.3Q469.79-4.3 471.19-5.15L471.19-5.15ZM496.24-26.45L488.54 0.1Q487.14 4.95 484.07 7.7 480.99 10.45 475.79 10.9L475.79 10.9 475.14 6.35Q478.54 5.8 480.19 4.4 481.84 3 482.89 0L482.89 0 480.64 0 473.19-26.45 479.64-26.45 484.69-4.15 489.94-26.45 496.24-26.45ZM498.69-34.55L505.39-34.55 504.59-12.15 499.54-12.15 498.69-34.55ZM502.04-7.15Q503.74-7.15 504.86-6 505.99-4.85 505.99-3.2L505.99-3.2Q505.99-1.6 504.86-0.43 503.74 0.75 502.04 0.75L502.04 0.75Q500.39 0.75 499.26-0.43 498.14-1.6 498.14-3.2L498.14-3.2Q498.14-4.85 499.26-6 500.39-7.15 502.04-7.15L502.04-7.15Z" opacity="1" transform="matrix(1,0,0,1,0,0)" fill="#454545" class="undefined-text-1" data-fill-palette-color="secondary" id="text-1"></path></svg></g></svg></g></svg></g></svg></g><g transform="matrix(1,0,0,1,145.08045986867316,0)"><svg viewBox="0 0 105.35908026265366 155.53007086391733" height="155.53007086391733" width="105.35908026265366"><g><svg xmlns="http://www.w3.org/2000/svg" xmlns:xlink="http://www.w3.org/1999/xlink" version="1.1" x="0" y="0" viewBox="11 1 42 62" style="enable-background:new 0 0 64 64;" xml:space="preserve" height="155.53007086391733" width="105.35908026265366" class="icon-icon-0" data-fill-palette-color="accent" id="icon-0"><g fill="#454545" data-fill-palette-color="accent"><path d="M53 59V1H11v58h5v2h-5v2h12v-2h-5v-2h28v2h-5v2h12v-2h-5v-2H53zM39 38v4H25v-4H39zM43 44v2H21v-2H43zM41 42v-4h2v-2H21v2h2v4h-4v4h-6V23h10v2h-2v2h2v2.618L27.764 32H31v2h2v-2h3.236L41 29.618V27h2v-2h-2v-2h10v23h-6v-4H41zM28.236 30L25 28.382V27h14v1.382L35.764 30H28.236zM25 25v-2h14v2H25zM51 3v18H13V3H51zM13 48h38v9H13V48z" fill="#454545" data-fill-palette-color="accent"></path><path d="M34 5H15v10h19V5zM32 13H17V7h15V13z" fill="#454545" data-fill-palette-color="accent"></path><rect x="36" y="5" width="3" height="2" fill="#454545" data-fill-palette-color="accent"></rect><rect x="41" y="5" width="3" height="2" fill="#454545" data-fill-palette-color="accent"></rect><rect x="36" y="9" width="3" height="2" fill="#454545" data-fill-palette-color="accent"></rect><rect x="41" y="9" width="3" height="2" fill="#454545" data-fill-palette-color="accent"></rect><rect x="36" y="13" width="3" height="2" fill="#454545" data-fill-palette-color="accent"></rect><rect x="41" y="13" width="3" height="2" fill="#454545" data-fill-palette-color="accent"></rect><rect x="46" y="5" width="3" height="2" fill="#454545" data-fill-palette-color="accent"></rect><rect x="46" y="9" width="3" height="2" fill="#454545" data-fill-palette-color="accent"></rect><rect x="46" y="13" width="3" height="2" fill="#454545" data-fill-palette-color="accent"></rect><rect x="47" y="50" width="2" height="2" fill="#454545" data-fill-palette-color="accent"></rect><rect x="36" y="50" width="9" height="2" fill="#454545" data-fill-palette-color="accent"></rect></g></svg></g></svg></g><g></g></svg></g><defs></defs></svg><rect width="395.52" height="232.66544360421022" fill="none" stroke="none" visibility="hidden"></rect></g></svg></g></svg>